<?xml version="1.0" encoding="UTF-8"?>
<svg version="1.1" xmlns="http://www.w3.org/2000/svg" width="1407" height="1407">
<path d="M0 0 C1.33119282 1.12406225 2.6452717 2.26885279 3.9375 3.4375 C4.54722656 3.96730469 5.15695312 4.49710937 5.78515625 5.04296875 C17.13432708 15.54406967 24.49726483 31.58115962 25.2734375 47.015625 C25.62151405 65.10030541 20.83837438 79.82946864 8.23901367 93.15722656 C-6.09646649 107.82162329 -23.96637851 116.06065528 -44.625 116.6875 C-65.4778901 116.45319786 -84.69652124 106.60722906 -99.40234375 92.22265625 C-111.88703186 79.15131612 -116.43328608 63.98686909 -116.23046875 46.3046875 C-116.0701995 42.6147676 -115.59971127 39.08799862 -115.0625 35.4375 C-114.97734271 33.50142392 -114.93207919 31.5629404 -114.9375 29.625 C-114.93363281 28.22314453 -114.93363281 28.22314453 -114.9296875 26.79296875 C-114.90763489 24.41710329 -114.90763489 24.41710329 -116.0625 22.4375 C-118.08713255 21.78536708 -118.08713255 21.78536708 -120.0625 21.4375 C-117.54824876 13.49324703 -109.57811998 10.1670674 -102.6171875 6.41015625 C-100.72812721 5.43201059 -98.8347635 4.46213769 -96.9375 3.5 C-95.93267578 2.98566406 -94.92785156 2.47132813 -93.89257812 1.94140625 C-91.88005409 0.91263997 -89.86608981 -0.11331445 -87.85058594 -1.13623047 C-85.39905744 -2.39033112 -82.96610141 -3.67202363 -80.5390625 -4.97265625 C-54.04085283 -19.03689467 -24.3998399 -18.41418923 0 0 Z " fill="#000000" transform="translate(1206.0625,316.5625)"/>
<path d="M0 0 C0 27.06 0 54.12 0 82 C-5.28 82 -10.56 82 -16 82 C-19.89561864 78.10438136 -20.13239034 75.52794016 -20.53515625 70.23828125 C-20.62216797 69.12001953 -20.70917969 68.00175781 -20.79882812 66.84960938 C-20.88583984 65.68236328 -20.97285156 64.51511719 -21.0625 63.3125 C-21.19881836 61.54422852 -21.19881836 61.54422852 -21.33789062 59.74023438 C-21.5619806 56.82706468 -21.78254296 53.9136711 -22 51 C-22.28488281 51.59296875 -22.56976562 52.1859375 -22.86328125 52.796875 C-24.54717947 56.06051279 -26.36904688 58.4275125 -29 61 C-32.625 61.5625 -32.625 61.5625 -36 61 C-37 60 -38 59 -39 58 C-44.36476765 58.21397934 -46.78612614 60.1435621 -50.5625 63.8125 C-55.79593435 68.83808164 -55.79593435 68.83808164 -58.62890625 71.0859375 C-60.83564116 72.86732153 -62.56272805 74.64219383 -64.375 76.8125 C-66.6595685 79.48771982 -68.98721471 82.03792114 -71.5 84.5 C-73.9103132 86.86221382 -76.13620347 89.29606313 -78.3125 91.875 C-88.69540075 103.8516643 -88.69540075 103.8516643 -94.57421875 105.89453125 C-97.47483691 106.02064508 -98.42713339 105.51765749 -100.6875 103.75 C-101.26886719 103.31171875 -101.85023437 102.8734375 -102.44921875 102.421875 C-104.63789045 100.41513319 -105.87938759 98.63321516 -106.4375 95.703125 C-105.80743835 91.81024407 -103.57268097 89.57292122 -101 86.75 C-100.47108154 86.15082764 -99.94216309 85.55165527 -99.3972168 84.93432617 C-94.3049324 79.21529908 -89.01042897 73.68137678 -83.73901367 68.12817383 C-72.19153946 56.6884188 -72.19153946 56.6884188 -64 43 C-64.13285829 39.6147707 -64.62482406 38.36666533 -67.06640625 35.98046875 C-67.89011719 35.38878906 -68.71382812 34.79710937 -69.5625 34.1875 C-70.38878906 33.58292969 -71.21507812 32.97835937 -72.06640625 32.35546875 C-72.70449219 31.90816406 -73.34257813 31.46085938 -74 31 C-73.77783203 29.18212891 -73.77783203 29.18212891 -73 27 C-71.06201172 25.48583984 -71.06201172 25.48583984 -68.5546875 24.0859375 C-67.64686523 23.57256836 -66.73904297 23.05919922 -65.80371094 22.53027344 C-64.87848633 22.0252832 -63.95326172 21.52029297 -63 21 C-62.18563477 20.54399414 -61.37126953 20.08798828 -60.53222656 19.61816406 C-50.9924627 14.333826 -41.31601852 9.49081306 -31.1875 5.4375 C-29.9802124 4.95434326 -29.9802124 4.95434326 -28.74853516 4.46142578 C-18.59153001 0.52673009 -11.50094731 0 0 0 Z " fill="#000000" transform="translate(1163,935)"/>
<path d="M0 0 C1.010625 0.7425 2.02125 1.485 3.0625 2.25 C3.949375 2.8275 4.83625 3.405 5.75 4 C12.59960118 10.66447682 14.00114441 20.31836069 14.5 29.5 C14.14367674 43.5549731 6.17259597 55.1371797 -2.65625 65.4375 C-5.07864644 68.08673859 -5.07864644 68.08673859 -5.9375 71.25 C-5.17606689 71.22905273 -4.41463379 71.20810547 -3.63012695 71.18652344 C-0.17021968 71.10322205 3.28947638 71.05129416 6.75 71 C7.94818359 70.96648437 9.14636719 70.93296875 10.38085938 70.8984375 C12.11625977 70.87910156 12.11625977 70.87910156 13.88671875 70.859375 C14.94979248 70.83842773 16.01286621 70.81748047 17.1081543 70.79589844 C20.78340694 71.36080794 22.41521234 72.69506303 25.0625 75.25 C26.48912219 78.10324437 26.37283868 80.08454549 26.0625 83.25 C24.26256226 85.94990662 22.978727 87.7918865 20.0625 89.25 C18.46087105 89.36538263 16.85463303 89.41949874 15.24902344 89.44287109 C14.2474823 89.45893402 13.24594116 89.47499695 12.21405029 89.49154663 C7.62659344 89.53598472 3.03928195 89.5770693 -1.54833984 89.60009766 C-3.96738306 89.61665088 -6.3863775 89.6439322 -8.80517578 89.68212891 C-12.29225045 89.73691967 -15.77817771 89.75877697 -19.265625 89.7734375 C-20.34394592 89.79610687 -21.42226685 89.81877625 -22.53326416 89.84213257 C-30.91915669 89.81856593 -30.91915669 89.81856593 -34.60449219 86.84228516 C-37.1058136 84.06298097 -37.83499959 83.15200362 -38.25 79.5 C-37.52686785 71.97942566 -30.89970821 67.08107649 -25.75 62.125 C-11.95645846 49.21656606 -11.95645846 49.21656606 -4.9375 32.25 C-4.91524458 26.81967677 -5.22699332 22.0352155 -7.9375 17.25 C-13.61061399 17.6346179 -16.76055585 18.07305585 -20.9375 22.25 C-22.82844537 26.03189074 -21.75769494 31.37978994 -21.58203125 35.55078125 C-21.98916637 39.78767094 -22.94561638 41.30235865 -25.9375 44.25 C-28.82611709 45.69430855 -30.73397701 45.62688506 -33.9375 45.25 C-38.91467559 41.66180364 -40.89789347 37.14110369 -41.9375 31.25 C-42.43126649 21.17135453 -38.5325116 13.65042009 -31.9375 6.25 C-29.0625 4.265625 -29.0625 4.265625 -25.9375 2.5 C-24.90625 1.90703125 -23.875 1.3140625 -22.8125 0.703125 C-16.16518057 -2.65666145 -6.69777258 -3.76196477 0 0 Z " fill="#000000" transform="translate(1249.9375,458.75)"/>
<path d="M0 0 C1.59134766 -0.04253906 1.59134766 -0.04253906 3.21484375 -0.0859375 C6.0625 0.375 6.0625 0.375 7.87890625 2.0234375 C10.46320275 7.15791438 10.28405062 13.06351885 10.52734375 18.7109375 C10.60598458 20.35026691 10.68476536 21.98958961 10.76367188 23.62890625 C10.88206411 26.17324531 10.99855676 28.71764511 11.11206055 31.26220703 C11.50581309 39.9794271 11.96526953 48.67731515 12.94140625 57.3515625 C13.08263916 58.61307129 13.22387207 59.87458008 13.36938477 61.17431641 C14.07277711 64.42245786 14.76415392 66.01646925 17.0625 68.375 C19.53811805 69.49031954 19.53811805 69.49031954 22.25 70.125 C23.60158203 70.48851562 23.60158203 70.48851562 24.98046875 70.859375 C25.66753906 71.02953125 26.35460938 71.1996875 27.0625 71.375 C26.66853944 79.03359322 24.48573035 84.74942804 21.1875 91.625 C20.70079834 92.65971436 20.21409668 93.69442871 19.71264648 94.76049805 C16.29557041 101.95823894 12.76370316 109.09931122 9.125 116.1875 C8.67721191 117.07018555 8.22942383 117.95287109 7.76806641 118.86230469 C7.34058105 119.67731445 6.9130957 120.49232422 6.47265625 121.33203125 C6.10277588 122.04335205 5.73289551 122.75467285 5.35180664 123.48754883 C3.86650578 125.66192129 2.23367908 126.91063644 0.0625 128.375 C-10.47538475 111.13950086 -19.93108959 93.35439023 -26.9375 74.375 C-23.89946702 70.68524377 -20.74662162 70.63884093 -16.21484375 70 C-13.57632755 69.54344924 -13.57632755 69.54344924 -11.9375 66.375 C-10.69235077 60.29536065 -10.75376655 54.18681557 -10.69140625 48 C-10.6584814 45.77603753 -10.62526953 43.55207929 -10.59179688 41.328125 C-10.54435885 37.84573124 -10.49986902 34.3633563 -10.46069336 30.88085938 C-10.42088676 27.50373422 -10.36938285 24.1269407 -10.31640625 20.75 C-10.3079921 19.71439941 -10.29957794 18.67879883 -10.29090881 17.61181641 C-9.99325518 0.12113037 -9.99325518 0.12113037 0 0 Z " fill="#000000" transform="translate(1152.9375,1080.625)"/>
<path d="M0 0 C6.6 0 13.2 0 20 0 C20 19.8 20 39.6 20 60 C20.66 60 21.32 60 22 60 C22.26167969 59.42378906 22.52335937 58.84757813 22.79296875 58.25390625 C25.60980857 52.99398205 30.35061173 47.17284164 36 45 C40.01064998 45 41.67070299 45.74944793 44.875 48.1875 C47 51 47 51 47.5625 53.9375 C46.43618635 60.06965207 41.9360626 64.30409444 37.75 68.6875 C30.58957204 76.35100253 24.4148106 84.22565922 20.203125 93.90625 C18.79149368 96.36285515 17.39686387 97.51578814 15 99 C12.25 99.625 12.25 99.625 9 99 C5.96378544 97.03813829 3.52716815 94.57081527 1 92 C0.14019531 91.12730469 -0.71960937 90.25460937 -1.60546875 89.35546875 C-7.63870444 83.06664208 -12.82260973 76.3715497 -17.765625 69.203125 C-19.61718659 66.54878845 -21.54014662 64.0231266 -23.5625 61.5 C-25.90014399 58.38535502 -27.08914828 56.01167279 -27 52 C-25.39588152 48.47093933 -24.25840638 47.17227092 -21 45 C-18.3125 44.4375 -18.3125 44.4375 -15 45 C-9.43093734 48.69086898 -5.70899225 53.54559964 -2 59 C-1.34 59.33 -0.68 59.66 0 60 C0 40.2 0 20.4 0 0 Z " fill="#000000" transform="translate(1143,493)"/>
<path d="M0 0 C0.71933716 -0.01093185 1.43867432 -0.02186371 2.17980957 -0.03312683 C4.51720044 -0.05983942 6.85386958 -0.06598867 9.19140625 -0.06640625 C9.9816922 -0.0688031 10.77197815 -0.07119995 11.58621216 -0.07366943 C24.68745227 -0.07400284 40.33205737 -0.0130071 51.75390625 7.37109375 C54.99194592 13.09163051 54.99194592 13.09163051 54.25390625 17.05859375 C52.27832758 20.10427753 50.98656958 21.62006778 47.75390625 23.37109375 C44.34250306 23.45782434 41.11011084 22.94018931 37.75390625 22.37109375 C35.42100422 22.03475511 33.08775287 21.7008141 30.75390625 21.37109375 C31.19557129 21.70729736 31.63723633 22.04350098 32.09228516 22.38989258 C43.74221824 31.26366498 55.32832792 40.20947261 66.75390625 49.37109375 C66.25129395 53.52123531 65.23144347 55.45500814 62.12890625 58.24609375 C61.47664063 58.86226563 60.824375 59.4784375 60.15234375 60.11328125 C56.57267489 61.99056687 54.62456658 61.428563 50.75390625 60.37109375 C47.81283526 58.85361847 45.14550795 57.0234048 42.44140625 55.12109375 C41.66958008 54.59257812 40.89775391 54.0640625 40.10253906 53.51953125 C32.86285928 48.53109035 25.7399508 43.37444902 18.64453125 38.18359375 C15.4034865 35.82013394 12.11067593 33.56671669 8.75390625 31.37109375 C9.70900409 34.12225609 10.66784607 36.87201463 11.62890625 39.62109375 C11.89832031 40.39839844 12.16773438 41.17570312 12.4453125 41.9765625 C12.70957031 42.73066406 12.97382812 43.48476563 13.24609375 44.26171875 C13.4869873 44.95297852 13.72788086 45.64423828 13.97607422 46.35644531 C14.72881074 48.41410269 14.72881074 48.41410269 15.82470703 50.44433594 C17.18678106 53.26868913 17.13303642 55.274864 16.75390625 58.37109375 C14.95396851 61.07100037 13.67013325 62.91298025 10.75390625 64.37109375 C6.95913849 64.87706278 5.3193619 64.78484179 2.19140625 62.49609375 C-9.08098661 48.04430803 -13.91621965 25.39964222 -13.24609375 7.37109375 C-10.2566967 0.96524293 -6.65275769 0.05400219 0 0 Z " fill="#000000" transform="translate(983.24609375,229.62890625)"/>
<path d="M0 0 C3.81215277 2.07935606 4.82039265 3.42684863 6.12643433 7.59460449 C7.15033236 12.08510548 7.2686072 16.39696311 7.22705078 20.98632812 C7.22734283 21.84581055 7.22763489 22.70529297 7.22793579 23.59082031 C7.2265532 26.40440306 7.21104285 29.21771407 7.1953125 32.03125 C7.19157856 33.99279638 7.18873339 35.95434464 7.18673706 37.91589355 C7.17913062 43.05823998 7.15950797 48.20047197 7.1373291 53.34277344 C7.11680608 58.59829155 7.10772157 63.8538283 7.09765625 69.109375 C7.07625912 79.40630005 7.0421595 89.70314048 7 100 C7.92993774 100.17740723 7.92993774 100.17740723 8.87866211 100.35839844 C9.69085205 100.5237207 10.50304199 100.68904297 11.33984375 100.859375 C12.14542725 101.01889648 12.95101074 101.17841797 13.78100586 101.34277344 C16 102 16 102 18.5625 104.25 C20.29650369 107.56722446 20.61550232 109.30698605 20 113 C18.20006226 115.69990662 16.916227 117.5418865 14 119 C8.91701872 119.28396543 3.83308409 119.31372881 -1.25708008 119.35009766 C-2.95546174 119.36664824 -4.65377401 119.39392685 -6.35180664 119.43212891 C-8.80391463 119.48699658 -11.25439147 119.50878513 -13.70703125 119.5234375 C-14.46240677 119.54610687 -15.21778229 119.56877625 -15.99604797 119.59213257 C-19.9957024 119.57616543 -21.78464173 119.1708707 -24.95581055 116.65478516 C-27.32635139 113.57616804 -28 111.87851448 -28 108 C-26.39588152 104.47093933 -25.25840638 103.17227092 -22 101 C-18.7 101 -15.4 101 -12 101 C-12 83.18 -12 65.36 -12 47 C-15.96 48.98 -15.96 48.98 -20 51 C-24.53213074 51.73993971 -27.75218378 50.73033701 -31.57421875 48.33203125 C-33 47 -33 47 -34.125 43.625 C-33.98148557 39.46308166 -33.39650698 37.40149378 -31 34 C-26.1 31 -26.1 31 -23 31 C-22.731875 30.4328125 -22.46375 29.865625 -22.1875 29.28125 C-20.94350353 26.8914673 -19.4939208 24.7408812 -18 22.5 C-14.96334752 17.56818368 -14.26525849 13.25720477 -13.55859375 7.58203125 C-13 5 -13 5 -10.5 2.3125 C-6.61352768 0.27210203 -4.47307404 -0.43853667 0 0 Z " fill="#000000" transform="translate(1120,177)"/>
<path d="M0 0 C6.6 0 13.2 0 20 0 C20 27.39 20 54.78 20 83 C13.4 83 6.8 83 0 83 C0 55.61 0 28.22 0 0 Z " fill="#000000" transform="translate(1143,639)"/>
<path d="M0 0 C1.15371094 0.29261719 2.30742187 0.58523438 3.49609375 0.88671875 C4.65238281 1.17160156 5.80867188 1.45648437 7 1.75 C9.93359375 2.57421875 9.93359375 2.57421875 11.93359375 3.57421875 C9.94607123 18.98695275 7.22578947 34.20161399 4.17236328 49.43725586 C3.42328578 53.18833693 2.69188005 56.94261363 1.9609375 60.69726562 C1.48413365 63.09526324 1.00630807 65.49305798 0.52734375 67.890625 C0.3116272 69.00715958 0.09591064 70.12369415 -0.12634277 71.27406311 C-0.44182068 72.82364967 -0.44182068 72.82364967 -0.76367188 74.40454102 C-1.03322693 75.76181053 -1.03322693 75.76181053 -1.30822754 77.14649963 C-2.13501729 79.79391411 -3.28554251 81.46906878 -5.06640625 83.57421875 C-9.57835439 83.16404165 -13.56295912 82.51377925 -17.8515625 81.03125 C-19.0427771 80.62289917 -19.0427771 80.62289917 -20.25805664 80.20629883 C-20.85481201 79.9977124 -21.45156738 79.78912598 -22.06640625 79.57421875 C-20.5255161 66.17928773 -18.52534517 52.90211022 -16.12890625 39.63671875 C-16.0077948 38.95650665 -15.88668335 38.27629456 -15.76190186 37.57546997 C-10.75316388 9.56462431 -10.75316388 9.56462431 -6.06640625 1.57421875 C-3.06640625 -0.42578125 -3.06640625 -0.42578125 0 0 Z " fill="#000000" transform="translate(208.06640625,532.42578125)"/>
<path d="M0 0 C7.8032513 0.78803154 15.06081311 2.9714126 22.52182007 5.30723572 C23.88777724 5.72772582 25.25396215 6.14747675 26.62036133 6.56652832 C29.46449877 7.44087948 32.30663302 8.32136062 35.14730835 9.20689392 C38.78266701 10.3400299 42.42143915 11.46168114 46.06159019 12.57931423 C48.87466729 13.44360321 51.68652916 14.31178668 54.4979744 15.18136787 C55.83974949 15.59630756 57.18174518 16.01053464 58.52396774 16.42402458 C60.39596065 17.00181823 62.26630218 17.58495398 64.13656616 18.1683197 C65.19894501 18.49839523 66.26132385 18.82847076 67.355896 19.16854858 C69.74717115 19.99380682 71.90167731 20.92412964 74.12338257 22.12364197 C74.23084595 28.75566806 72.60625886 32.61372305 68.40072632 37.69004822 C64.95659985 39.85813469 62.0136405 39.6855555 58.12338257 39.12364197 C53.39044953 38.02592664 48.76000329 36.62967587 44.12338257 35.18614197 C43.4677533 34.98556183 42.81212402 34.78498169 42.1366272 34.57832336 C25.08073458 29.35790755 7.74823857 23.86122591 -7.87661743 15.12364197 C-6.63198267 0.43695181 -6.63198267 0.43695181 0 0 Z " fill="#000000" transform="translate(517.8766174316406,1127.8763580322266)"/>
<path d="M0 0 C4.78776693 4.42003792 7.4260665 9.44631885 9.75 15.4375 C10.07943604 16.24880371 10.40887207 17.06010742 10.74829102 17.89599609 C11.84329267 20.59298694 12.92146342 23.296387 14 26 C15.63104782 30.04781191 17.27812004 34.08872226 18.9375 38.125 C19.35201416 39.13723633 19.76652832 40.14947266 20.19360352 41.19238281 C23.15598082 48.3011696 26.4825532 55.10149244 30.39624023 61.73681641 C31.98571749 64.52207018 33.0041708 66.50993068 32.9765625 69.75390625 C31.79440676 72.47286444 30.60061467 73.54873177 28.1875 75.25 C27.50042969 75.75015625 26.81335938 76.2503125 26.10546875 76.765625 C23.9285786 78.04187229 22.50263751 78.71116741 20 79 C13.56692613 75.34336461 9.88617266 69.24839104 6.6875 62.8125 C6.23238037 61.92046875 5.77726074 61.0284375 5.30834961 60.109375 C-1.72181533 45.950317 -7.41517699 31.03085329 -12.37890625 16.03125 C-12.71607666 15.01611328 -13.05324707 14.00097656 -13.40063477 12.95507812 C-14.0829477 9.59103913 -13.89490488 7.30336754 -13 4 C-8.97444098 0.08037674 -5.49419803 -2.04435276 0 0 Z " fill="#000000" transform="translate(225,824)"/>
<path d="M0 0 C1.00915466 -0.00960754 2.01830933 -0.01921509 3.05804443 -0.02911377 C4.14651672 -0.03336365 5.23498901 -0.03761353 6.35644531 -0.04199219 C8.05562103 -0.0505423 8.05562103 -0.0505423 9.78912354 -0.05926514 C12.19322782 -0.06871565 14.59734507 -0.07524932 17.00146484 -0.07910156 C20.62914729 -0.08872024 24.25624167 -0.11970715 27.88378906 -0.15136719 C61.0141874 -0.31009346 61.0141874 -0.31009346 69.93457031 8.16113281 C71.52689032 11.57324711 71.13320614 15.45326397 70.93457031 19.16113281 C69.92285156 21.37988281 69.92285156 21.37988281 68.93457031 23.16113281 C62.90037806 23.25359371 57.13856735 22.93544536 51.15722656 22.19238281 C40.02382581 20.91848878 28.92962609 20.76413089 17.73510742 20.62939453 C-4.2348231 20.33986041 -4.2348231 20.33986041 -9.06542969 18.16113281 C-11.74813371 15.31477055 -12.05488475 14.27185464 -12.44042969 10.22363281 C-12.28748123 6.49725222 -11.53039088 4.06626564 -9.06542969 1.16113281 C-6.04076295 0.11707548 -3.18175251 0.02456476 0 0 Z " fill="#000000" transform="translate(709.0654296875,155.8388671875)"/>
<path d="M0 0 C2.74275658 2.10971661 3.85261952 3.46088051 4.77099609 6.8203125 C4.89555176 7.91085937 5.02010742 9.00140625 5.1484375 10.125 C5.29506836 11.37152344 5.44169922 12.61804688 5.59277344 13.90234375 C5.73107022 15.26797288 5.86674056 16.63387013 6 18 C6.10616638 19.04244873 6.10616638 19.04244873 6.21447754 20.10595703 C6.74722042 25.39909293 7.20075167 30.69716735 7.625 36 C7.69003723 36.80760773 7.75507446 37.61521545 7.82208252 38.44729614 C8.60179839 48.26999206 9.29739231 58.07959824 9.375 67.9375 C9.38869629 68.79279297 9.40239258 69.64808594 9.41650391 70.52929688 C9.37938135 75.40539483 8.70328497 78.7818307 6 83 C2.93411214 84.95876169 1.03127039 85 -2.625 85 C-6 84 -6 84 -7.61328125 81.453125 C-9.16608293 77.5864301 -9.96613987 73.8480645 -10.5625 69.75 C-10.68471924 68.93499023 -10.80693848 68.11998047 -10.93286133 67.28027344 C-13.13974358 51.70603151 -14.15498635 35.97412562 -14.25 20.25 C-14.25926514 19.30415039 -14.26853027 18.35830078 -14.27807617 17.38378906 C-14.25010362 11.36146294 -14.07876207 6.25694168 -9.8125 1.625 C-6.21482784 -0.45365503 -4.09432558 -0.59553827 0 0 Z " fill="#000000" transform="translate(199,677)"/>
<path d="M0 0 C1.81748169 2.7413179 2.3644349 5.17828908 2.5 8.4375 C2.5515625 9.17871094 2.603125 9.91992188 2.65625 10.68359375 C1.64830565 14.24139731 -1.0713428 15.96374165 -4 18 C-6.4181743 19.15656329 -8.66819927 20.12644215 -11.17578125 21.01171875 C-11.8636824 21.26161057 -12.55158356 21.51150238 -13.2603302 21.76896667 C-21.73602473 24.74874792 -30.44753414 26.77814498 -39.1875 28.8125 C-40.85503784 29.20936264 -42.52235691 29.60714567 -44.18945312 30.00585938 C-61.60073702 34.15189078 -61.60073702 34.15189078 -68.125 34.25 C-69.67574219 34.28867188 -69.67574219 34.28867188 -71.2578125 34.328125 C-74 34 -74 34 -75.81640625 32.6953125 C-77.75547122 29.91790591 -77.82779976 27.32920472 -78 24 C-77.24787057 20.40649272 -76.36268172 19.28060696 -73.4453125 17.0234375 C-69.49496067 14.7033896 -65.83468196 13.49740356 -61.4375 12.3125 C-60.13619141 11.95055542 -60.13619141 11.95055542 -58.80859375 11.58129883 C-45.89483402 8.0610409 -32.85722734 4.98232645 -19.84375 1.85546875 C-18.76831688 1.59647293 -18.76831688 1.59647293 -17.67115784 1.33224487 C-5.97153649 -1.4647165 -5.97153649 -1.4647165 0 0 Z " fill="#000000" transform="translate(879,1137)"/>
<path d="M0 0 C3.95139661 3.29283051 6.02456277 6.11173082 6.671875 11.24609375 C6.78015625 12.48488281 6.8884375 13.72367188 7 15 C6.35264893 15.30067383 5.70529785 15.60134766 5.03833008 15.91113281 C-6.49219479 21.29156995 -17.89435382 26.74531205 -28.875 33.1875 C-35.62671198 37.14402 -42.42918887 40.82971868 -49.5 44.1875 C-50.28358887 44.56221436 -51.06717773 44.93692871 -51.87451172 45.32299805 C-59.04817043 48.66044609 -59.04817043 48.66044609 -63 49 C-66.48634601 47.37844371 -67.84302194 46.23546708 -70 43 C-70.75384484 38.85385337 -70.16685882 37.26010345 -67.875 33.6875 C-57.16948403 22.44426405 -15.61583184 -5.94888832 0 0 Z " fill="#000000" transform="translate(489,206)"/>
<path d="M0 0 C3.64974174 1.50750202 5.26223334 3.20148096 7.875 6.1875 C8.46023438 6.82945312 9.04546875 7.47140625 9.6484375 8.1328125 C13.29441227 12.15347242 16.78006476 16.2757556 20.1875 20.5 C23.45460293 24.53186368 26.84359389 28.39001225 30.375 32.1875 C50.98658263 54.41384798 50.98658263 54.41384798 51.875 62.1875 C49.38083714 65.53903135 47.55152285 66.97050211 43.5625 68.25 C36.42578916 68.1290388 31.42269602 64.20276711 26.55004883 59.26538086 C25.68996216 58.36057983 25.68996216 58.36057983 24.8125 57.4375 C24.20108154 56.8091626 23.58966309 56.1808252 22.9597168 55.53344727 C18.77781477 51.20959641 14.74358136 46.79377093 10.875 42.1875 C10.03582031 41.23746094 9.19664062 40.28742187 8.33203125 39.30859375 C-9.17792014 19.34351909 -9.17792014 19.34351909 -10.625 9.9375 C-10.09410126 5.95575948 -9.77621544 5.30472512 -7 2.6875 C-4.35287782 0.69682142 -3.39343067 0.20360584 0 0 Z " fill="#000000" transform="translate(290.125,951.8125)"/>
<path d="M0 0 C5.7859282 0.60313449 10.85042546 2.15914836 16.30859375 4.1328125 C17.63516747 4.60519852 17.63516747 4.60519852 18.98854065 5.08712769 C20.85802148 5.75471791 22.72632485 6.42561357 24.59350586 7.09960938 C27.39442645 8.10947001 30.19972125 9.10630633 33.00585938 10.1015625 C69.57909956 23.15819912 69.57909956 23.15819912 73 30 C73.47001146 37.4026805 73.47001146 37.4026805 71.73901367 39.60253906 C68.56734493 42.15127301 64.87572697 41.39140077 61 41 C58.06771034 40.4431321 55.27577841 39.60458953 52.4375 38.6875 C51.6110498 38.4289624 50.78459961 38.1704248 49.93310547 37.90405273 C46.9482475 36.95694976 43.97395282 35.98081417 41 35 C39.7257547 34.58298947 38.45150308 34.16599826 37.17724609 33.74902344 C33.68859218 32.60393086 30.20591282 31.44185096 26.72634888 30.2694397 C25.34911432 29.80610789 23.97094743 29.34553616 22.59176636 28.88803101 C-0.94980134 21.05019866 -0.94980134 21.05019866 -7 15 C-7 8.48072106 -4.12201453 4.85313637 0 0 Z " fill="#000000" transform="translate(848,173)"/>
<path d="M0 0 C3.61473759 1.70076131 7.0095275 3.6909022 10.41015625 5.77734375 C11.1688501 6.24253418 11.92754395 6.70772461 12.70922852 7.18701172 C20.35214423 11.93657538 27.8268643 16.93258096 35.28515625 21.96484375 C36.17208664 22.55989212 36.17208664 22.55989212 37.07693481 23.16696167 C57.59071748 36.9544356 57.59071748 36.9544356 61.84765625 43.33984375 C62.42489797 46.51467321 62.33107556 48.49469344 60.71484375 51.3203125 C57.89095838 55.02388991 57.89095838 55.02388991 55.84765625 56.33984375 C50.41367333 56.27729431 46.4069715 53.65509602 41.91015625 50.90234375 C41.16507812 50.4542334 40.42 50.00612305 39.65234375 49.54443359 C32.22770489 45.03954342 24.99153182 40.2756775 17.84765625 35.33984375 C17.15639648 34.86256836 16.46513672 34.38529297 15.75292969 33.89355469 C6.24296395 27.30312696 -3.05608613 20.49029322 -12.15234375 13.33984375 C-11.62850772 9.23526556 -10.50069191 7.12473863 -7.71484375 4.08984375 C-7.09738281 3.4040625 -6.47992188 2.71828125 -5.84375 2.01171875 C-2.9066131 -0.89150202 -2.9066131 -0.89150202 0 0 Z " fill="#000000" transform="translate(393.15234375,1056.66015625)"/>
<path d="M0 0 C1.22477051 0.00789551 2.44954102 0.01579102 3.71142578 0.02392578 C50.49626861 0.45159719 50.49626861 0.45159719 56.39453125 4.9765625 C58.30277074 7.50598533 58.55374712 8.62717967 58.4375 11.75 C58.42460938 12.51441406 58.41171875 13.27882813 58.3984375 14.06640625 C58.0625 16.1875 58.0625 16.1875 56.0625 19.1875 C48.70032209 21.63495571 40.66967108 21.47125473 33 21.375 C31.8852832 21.36637939 30.77056641 21.35775879 29.62207031 21.34887695 C26.1017277 21.3121348 22.58240982 21.25344679 19.0625 21.1875 C17.90443848 21.16816406 16.74637695 21.14882812 15.55322266 21.12890625 C-16.57340866 20.51430197 -16.57340866 20.51430197 -22.76171875 15.796875 C-24.79164786 13.01836738 -24.27985963 10.4969764 -23.9375 7.1875 C-22.9375 4.375 -22.9375 4.375 -20.9375 2.1875 C-13.98838636 -0.1697965 -7.28219724 -0.08119174 0 0 Z " fill="#000000" transform="translate(677.9375,1160.8125)"/>
<path d="M0 0 C2.12608175 2.93601766 2.46757188 5.43804791 2 9 C-9.13885613 21.60219606 -26.76374064 30.3529779 -40.9375 38.9375 C-42.48183716 39.87758911 -42.48183716 39.87758911 -44.05737305 40.83666992 C-58.52739487 49.50050957 -58.52739487 49.50050957 -64 51 C-67.40257061 49.82060204 -68.9046307 48.20204877 -70.8125 45.1875 C-71.25207031 44.52105469 -71.69164062 43.85460938 -72.14453125 43.16796875 C-73.27938046 40.29198103 -72.91480412 38.94122063 -72 36 C-65.81005447 28.63431985 -57.30128886 23.79028102 -49.0625 19.0625 C-47.86824916 18.3686591 -46.67424169 17.67439914 -45.48046875 16.97973633 C-42.00001843 14.9630045 -38.50289004 12.97751225 -35 11 C-34.03562012 10.45504883 -33.07124023 9.91009766 -32.07763672 9.34863281 C-8.07254428 -4.08440486 -8.07254428 -4.08440486 0 0 Z " fill="#000000" transform="translate(1011,1075)"/>
<path d="M0 0 C2.07346585 1.58559153 2.88166747 2.61524215 3.65234375 5.12109375 C4.41018873 11.27728653 4.41018873 11.27728653 2.6875 14.3125 C-6.29005537 19.94956965 -17.01126377 22.00062671 -27.1875 24.5 C-27.97947784 24.69665253 -28.77145569 24.89330505 -29.58743286 25.09591675 C-65.20876972 33.92001247 -65.20876972 33.92001247 -74 33 C-77.29704865 29.47556868 -77.40259213 25.77934766 -77.59375 21.18359375 C-76.67279323 17.79665404 -74.93089946 16.85674783 -72 15 C-69.22997903 13.94489545 -66.59782995 13.08685956 -63.75 12.3125 C-62.45956787 11.95055542 -62.45956787 11.95055542 -61.14306641 11.58129883 C-48.80646378 8.24805357 -36.27066423 5.66614354 -23.78027344 2.98364258 C-22.89552338 2.79351593 -22.01077332 2.60338928 -21.09921265 2.40750122 C-19.41799723 2.04718813 -17.73639238 1.68868604 -16.05435181 1.33224487 C-4.90118882 -1.05025475 -4.90118882 -1.05025475 0 0 Z " fill="#000000" transform="translate(629,162)"/>
<path d="M0 0 C2.69366176 1.40695726 3.89553975 2.63889826 6 5 C5.20044744 21.07748931 -20.92389737 40.43085085 -32.16796875 51.046875 C-45.09719906 62.71156981 -45.09719906 62.71156981 -51.875 64.25 C-55 64 -55 64 -57.5 62 C-59.45663615 58.0867277 -58.97758181 56.22871396 -58 52 C-56.2421875 49.03515625 -56.2421875 49.03515625 -53.875 46.0625 C-53.44050537 45.51674316 -53.00601074 44.97098633 -52.55834961 44.40869141 C-46.45958536 36.89976564 -39.72385336 29.94473001 -33 23 C-32.22342041 22.19054932 -32.22342041 22.19054932 -31.43115234 21.36474609 C-9.41791237 -1.53761835 -9.41791237 -1.53761835 0 0 Z " fill="#000000" transform="translate(366,286)"/>
<path d="M0 0 C0.99 0.66 1.98 1.32 3 2 C3.75779359 8.53418244 2.16417584 13.03198201 -0.625 18.875 C-1.01961426 19.72433105 -1.41422852 20.57366211 -1.82080078 21.44873047 C-22.81429757 65.81429757 -22.81429757 65.81429757 -33 76 C-37.322432 75.71183787 -40.68630064 74.84031374 -44 72 C-45.37426664 66.53661646 -44.68411052 62.82875808 -42.4375 57.8125 C-42.13376465 57.10762451 -41.8300293 56.40274902 -41.51708984 55.67651367 C-20.62288546 8.30012 -20.62288546 8.30012 -9.1875 -0.375 C-5.90548431 -1.31271877 -3.29726067 -0.71940233 0 0 Z " fill="#000000" transform="translate(273,399)"/>
<path d="M0 0 C5.42199333 5.24126022 4.85541889 13.81924453 5.09921265 20.86886597 C5.14701511 23.84918652 5.16472044 26.82789438 5.16796875 29.80859375 C5.17129715 30.89656754 5.17462555 31.98454132 5.17805481 33.10548401 C5.18308337 35.39038678 5.18546441 37.67529678 5.18530273 39.96020508 C5.18749195 43.42476644 5.20569912 46.88901026 5.22460938 50.35351562 C5.22754375 52.58854059 5.22952825 54.82356705 5.23046875 57.05859375 C5.23765427 58.07771347 5.24483978 59.09683319 5.25224304 60.14683533 C5.19394042 78.80605958 5.19394042 78.80605958 1 83 C-4.74553571 83.63839286 -4.74553571 83.63839286 -7 83 C-15.3786244 71.68905501 -12.30720708 50.22057996 -12.26074219 36.92089844 C-12.24989855 33.21533302 -12.26075728 29.5102394 -12.2734375 25.8046875 C-12.27211789 23.43749894 -12.26955961 21.07031066 -12.265625 18.703125 C-12.26967346 17.60107727 -12.27372192 16.49902954 -12.27789307 15.36358643 C-12.26843658 13.82477814 -12.26843658 13.82477814 -12.25878906 12.25488281 C-12.25719788 11.35795715 -12.25560669 10.46103149 -12.25396729 9.53692627 C-11.96632335 6.66359767 -11.31131751 4.571046 -10 2 C-6.29584707 -0.46943529 -4.37855495 -0.46913089 0 0 Z " fill="#000000" transform="translate(1156,786)"/>
</svg>
