<?xml version="1.0" standalone="no"?>
<!DOCTYPE svg PUBLIC "-//W3C//DTD SVG 20010904//EN"
 "http://www.w3.org/TR/2001/REC-SVG-20010904/DTD/svg10.dtd">
<svg version="1.0" xmlns="http://www.w3.org/2000/svg"
 width="356.000000pt" height="372.000000pt" viewBox="0 0 356.000000 372.000000"
 preserveAspectRatio="xMidYMid meet">

<g transform="translate(0.000000,372.000000) scale(0.100000,-0.100000)"
fill="#000000" stroke="none">
<path d="M2278 3662 c-36 -22 -38 -47 -3 -38 25 6 25 6 25 -58 0 -59 -2 -65
-22 -68 -13 -2 -24 -11 -26 -20 -3 -16 5 -18 62 -18 59 0 66 2 66 20 0 13 -7
20 -20 20 -19 0 -20 7 -20 90 0 100 -6 107 -62 72z"/>
<path d="M1465 3640 c-249 -29 -506 -110 -700 -222 -220 -128 -409 -317 -517
-517 -15 -27 -21 -31 -44 -25 -27 7 -27 6 -21 -32 4 -21 7 -58 7 -81 0 -28 4
-43 13 -43 14 0 117 97 117 111 0 5 -7 9 -15 9 -23 0 -18 21 21 86 55 92 109
157 205 248 227 216 551 362 903 406 150 19 442 8 586 -23 63 -13 116 -24 117
-23 2 1 4 13 5 26 3 27 -5 31 -167 61 -127 23 -386 33 -510 19z"/>
<path d="M2705 3450 c-107 -12 -215 -58 -258 -109 -14 -17 -33 -53 -42 -82
l-17 -51 -32 30 c-78 73 -198 131 -326 157 -136 28 -317 39 -448 26 -258 -24
-387 -58 -566 -149 -148 -75 -287 -180 -436 -331 -214 -215 -327 -409 -414
-707 -82 -285 -105 -643 -57 -899 28 -152 75 -294 142 -426 247 -494 642 -767
1187 -820 347 -34 648 73 889 317 l93 94 0 -60 c0 -174 67 -280 215 -336 41
-16 76 -19 200 -19 132 1 157 3 206 23 122 49 186 121 213 243 14 60 16 237
16 1467 0 1580 6 1457 -79 1534 -94 84 -281 122 -486 98z m335 -109 c45 -14
76 -32 100 -56 l35 -36 0 -1447 0 -1448 -25 -49 c-33 -65 -97 -108 -189 -129
-131 -30 -264 -15 -356 38 -36 21 -52 40 -71 79 -22 48 -24 64 -24 209 0 131
-3 159 -16 173 -26 25 -45 14 -97 -55 -149 -199 -282 -308 -467 -383 -285
-114 -687 -80 -1015 85 -293 149 -550 463 -670 822 -57 169 -70 263 -70 501 0
231 13 335 65 533 76 288 196 498 405 708 151 151 267 238 420 314 195 97 393
140 648 140 352 0 577 -94 665 -277 21 -44 33 -59 52 -61 40 -6 50 21 50 130
0 147 25 181 162 218 98 27 300 22 398 -9z"/>
<path d="M1620 3015 c0 -24 2 -25 69 -25 38 0 83 -3 100 -6 28 -6 31 -4 31 19
0 31 -19 37 -122 37 -77 0 -78 0 -78 -25z"/>
<path d="M1435 3025 c-5 -2 -45 -11 -87 -20 -64 -13 -78 -20 -78 -35 0 -10 4
-21 9 -25 5 -3 50 5 101 17 78 19 90 25 88 42 -3 20 -15 27 -33 21z"/>
<path d="M1970 2981 c-13 -24 -9 -27 94 -62 84 -29 96 -29 96 1 0 14 -20 25
-86 49 -47 17 -87 31 -89 31 -2 0 -9 -9 -15 -19z"/>
<path d="M1037 2888 c-82 -43 -97 -59 -78 -82 10 -11 25 -6 89 30 42 24 80 44
84 44 12 0 10 14 -4 33 -12 15 -20 12 -91 -25z"/>
<path d="M2293 2841 c-11 -18 -6 -25 54 -68 92 -66 92 -66 109 -53 7 7 14 16
14 20 0 6 -152 120 -161 120 -2 0 -10 -9 -16 -19z"/>
<path d="M741 2666 c-43 -44 -62 -69 -58 -80 11 -28 31 -18 100 52 53 53 65
70 55 80 -20 20 -31 14 -97 -52z"/>
<path d="M1523 2700 c-279 -63 -464 -233 -597 -549 -124 -294 -128 -596 -12
-871 87 -205 251 -341 472 -390 162 -37 401 -32 541 11 224 69 410 240 524
483 l39 84 0 415 0 415 -45 60 c-119 158 -322 296 -502 342 -102 27 -303 26
-420 0z m369 -75 c151 -31 348 -154 457 -285 l51 -61 0 -400 0 -399 -30 -66
c-71 -158 -205 -308 -335 -375 -115 -60 -192 -80 -345 -86 -434 -18 -667 149
-756 542 -23 101 -23 300 -1 400 78 350 280 620 522 698 136 45 313 57 437 32z"/>
<path d="M2655 2669 c-22 -12 -52 -28 -67 -36 -31 -16 -45 -33 -28 -33 8 0 10
-13 5 -40 -13 -76 28 -142 109 -175 103 -43 230 36 230 143 0 124 -137 201
-249 141z"/>
<path d="M528 2375 c-36 -73 -41 -87 -28 -95 8 -5 18 -10 22 -10 3 0 27 39 52
87 35 65 44 88 34 95 -27 16 -37 6 -80 -77z"/>
<path d="M2690 2130 l0 -100 25 0 25 0 0 100 0 100 -25 0 -25 0 0 -100z"/>
<path d="M421 2103 c-10 -37 -30 -157 -27 -159 0 -1 11 -5 23 -8 18 -6 23 -3
27 16 2 13 11 57 19 98 8 41 14 76 13 76 0 1 -11 5 -23 8 -19 6 -23 2 -32 -31z"/>
<path d="M2690 1780 l0 -100 25 0 25 0 0 100 0 100 -25 0 -25 0 0 -100z"/>
<path d="M393 1774 c-8 -21 4 -175 15 -186 5 -5 16 -6 26 -2 15 6 16 17 11 93
-4 47 -8 92 -10 99 -6 17 -34 15 -42 -4z"/>
<path d="M2695 1517 c-3 -7 -5 -54 -3 -103 3 -81 5 -89 23 -89 19 0 20 7 20
100 0 87 -2 100 -18 103 -9 2 -19 -3 -22 -11z"/>
<path d="M461 1431 c-13 -8 -10 -21 13 -80 15 -39 35 -80 44 -91 15 -18 19
-19 36 -7 17 12 17 16 4 38 -9 13 -26 52 -39 87 -24 62 -32 69 -58 53z"/>
<path d="M2625 1138 c-75 -38 -74 -37 -51 -54 22 -15 23 -13 -63 -107 -34 -36
-34 -38 -17 -55 17 -16 21 -14 81 51 37 41 66 64 69 58 12 -19 34 -12 39 12 2
12 5 1 6 -25 1 -44 3 -48 26 -48 l25 0 0 100 0 100 -27 0 c-16 -1 -55 -15 -88
-32z"/>
<path d="M621 1117 c-12 -15 4 -41 72 -116 28 -31 43 -40 57 -36 28 9 25 22
-18 69 -20 22 -47 53 -59 69 -23 30 -35 33 -52 14z"/>
<path d="M872 868 c-7 -7 -12 -16 -12 -20 0 -9 147 -108 161 -108 5 0 13 8 18
18 8 15 -2 26 -69 70 -43 29 -80 52 -82 52 -2 0 -9 -5 -16 -12z"/>
<path d="M2273 797 c-73 -43 -81 -51 -72 -68 5 -10 13 -19 17 -19 19 0 162 92
162 104 0 36 -27 31 -107 -17z"/>
<path d="M2690 735 c0 -78 -2 -85 -20 -85 -11 0 -20 -3 -20 -7 0 -14 60 -133
67 -133 5 1 22 32 40 70 31 68 31 69 10 72 -20 3 -22 9 -25 86 -3 80 -3 82
-27 82 -25 0 -25 -1 -25 -85z"/>
<path d="M1176 695 c-3 -9 -6 -20 -6 -24 0 -9 150 -61 174 -61 13 0 34 37 24
44 -1 1 -37 13 -78 25 -41 12 -82 25 -91 27 -10 3 -19 -1 -23 -11z"/>
<path d="M1953 666 c-74 -18 -83 -23 -83 -43 0 -28 11 -29 99 -7 87 22 100 29
94 54 -6 23 -2 23 -110 -4z"/>
<path d="M1517 609 c-7 -27 9 -32 112 -33 84 -1 86 0 86 23 0 23 -2 24 -96 27
-90 3 -97 1 -102 -17z"/>
<path d="M3386 3184 c-23 -23 -10 -36 30 -28 61 11 56 -35 -14 -108 -51 -54
-40 -70 45 -66 53 2 68 6 68 18 0 10 -12 16 -37 18 -21 2 -38 6 -38 9 0 3 16
23 35 44 38 43 46 87 19 113 -20 21 -88 21 -108 0z"/>
<path d="M3430 1716 c0 -1128 0 -1146 -19 -1146 -11 0 -22 -4 -25 -8 -4 -7 56
-137 69 -150 5 -5 75 134 75 148 0 5 -11 10 -25 10 l-25 0 -2 1143 -3 1142
-22 3 -23 3 0 -1145z"/>
</g>
</svg>
