<?xml version="1.0" standalone="no"?>
<!DOCTYPE svg PUBLIC "-//W3C//DTD SVG 20010904//EN"
 "http://www.w3.org/TR/2001/REC-SVG-20010904/DTD/svg10.dtd">
<svg version="1.0" xmlns="http://www.w3.org/2000/svg"
 width="356.000000pt" height="372.000000pt" viewBox="0 0 356.000000 372.000000"
 preserveAspectRatio="xMidYMid meet">

<g transform="translate(0.000000,372.000000) scale(0.100000,-0.100000)"
fill="#000000" stroke="none">
<path d="M2705 3450 c-107 -12 -215 -58 -258 -109 -14 -17 -33 -53 -42 -82
l-17 -51 -32 30 c-78 73 -198 131 -326 157 -136 28 -317 39 -448 26 -258 -24
-387 -58 -566 -149 -148 -75 -287 -180 -436 -331 -214 -215 -327 -409 -414
-707 -82 -285 -105 -643 -57 -899 28 -152 75 -294 142 -426 247 -494 642 -767
1187 -820 347 -34 648 73 889 317 l93 94 0 -60 c0 -174 67 -280 215 -336 41
-16 76 -19 200 -19 132 1 157 3 206 23 122 49 186 121 213 243 14 60 16 237
16 1467 0 1580 6 1457 -79 1534 -94 84 -281 122 -486 98z m335 -109 c45 -14
76 -32 100 -56 l35 -36 0 -1447 0 -1448 -25 -49 c-33 -65 -97 -108 -189 -129
-131 -30 -264 -15 -356 38 -36 21 -52 40 -71 79 -22 48 -24 64 -24 209 0 128
-3 159 -16 172 -12 13 -18 13 -31 3 -34 -27 -81 -77 -141 -150 -258 -316 -632
-423 -1102 -316 -240 55 -441 167 -615 343 -206 207 -358 498 -412 786 -25
133 -25 472 0 621 67 401 199 672 452 925 151 151 267 238 420 314 195 97 393
140 648 140 352 0 577 -94 665 -277 21 -44 33 -59 52 -61 40 -6 50 21 50 130
0 147 25 181 162 218 98 27 300 22 398 -9z"/>
<path d="M1523 2700 c-279 -63 -464 -233 -597 -549 -124 -294 -128 -596 -12
-871 87 -205 251 -341 472 -390 162 -37 401 -32 541 11 224 69 410 240 524
483 l39 84 0 415 0 415 -45 60 c-119 158 -322 296 -502 342 -102 27 -303 26
-420 0z m369 -75 c151 -31 348 -154 457 -285 l51 -61 0 -400 0 -399 -30 -66
c-71 -158 -205 -308 -335 -375 -115 -60 -192 -80 -345 -86 -434 -18 -667 149
-756 542 -23 101 -23 300 -1 400 78 350 280 620 522 698 136 45 313 57 437 32z"/>
</g>
</svg>
